# xmcd
#
# Track frame offsets: 
#        150
#        25863
#        46078
#        55340
#        69818
#        83013
#        98508
#        117270
#        135925
#        145845
#        154445
#        164625
#        175803
#        184405
#        196643
#        207820
#        217870
#        238645
#        259590
#        273070
#        292290
#        302438
#        312715
#
# Disc length: 4287 seconds
#
# Revision: 1
# Processed by: cddbd v1.5.2PL0 Copyright (c) Steve Scherf et al.
# Submitted via: ExactAudioCopyFreeDBPlugin 1.0
#
DISCID=3e10bd17
DTITLE=Brother Claude Ely - Satan Get Back!
DYEAR=1993
DGENRE=Gospel
TTITLE0=I'm Crying Holy Unto The Lord
TTITLE1=There's A Leak In This Old Building
TTITLE2=Send Down That Rain
TTITLE3=There Ain't No Grave Gonna Hold My Body Down
TTITLE4=Talk About Jesus
TTITLE5=I'm Just A Stranger Here
TTITLE6=Thank You Jesus
TTITLE7=I Want To Rest
TTITLE8=You've Got To Move
TTITLE9=Farther On
TTITLE10=Jesus Is The Rock
TTITLE11=Little David, Play On Your Harp
TTITLE12=There's A Higher Power
TTITLE13=Holy, Holy, Holy (That's All Right)
TTITLE14=Dip Your Finger In The Water (And Cool My Thumb)
TTITLE15=So You Want To Shout
TTITLE16=Those Prayers And Words Still Guide Me
TTITLE17=My Crucified One
TTITLE18=The Old Fireside
TTITLE19=Fare You Well
TTITLE20=I Want To Go To Heaven
TTITLE21=You Took The Wrong Road Again
TTITLE22=Stop That Train
EXTD=
EXTT0=
EXTT1=
EXTT2=
EXTT3=
EXTT4=
EXTT5=
EXTT6=
EXTT7=
EXTT8=
EXTT9=
EXTT10=
EXTT11=
EXTT12=
EXTT13=
EXTT14=
EXTT15=
EXTT16=
EXTT17=
EXTT18=
EXTT19=
EXTT20=
EXTT21=
EXTT22=
PLAYORDER=
